<svg width="15" height="19" viewBox="0 0 15 19" fill="none" xmlns="http://www.w3.org/2000/svg">
<path d="M10.246 5.96648V0.927116C10.246 0.617756 9.98229 0.367188 9.65665 0.367188H8.47785C8.15221 0.367188 7.88845 0.617756 7.88845 0.927116V6.06901C8.07338 6.00672 8.26935 5.96648 8.47675 5.96648H10.246ZM14.9612 9.3257C14.9609 8.08896 13.9055 7.08633 12.604 7.08633H8.47306C8.14963 7.08633 7.88735 7.33375 7.88735 7.64101V7.66061C7.88735 8.57994 8.67199 9.32605 9.63971 9.32605H10.9386C11.2952 9.32605 11.4248 9.45133 11.4248 9.60601V10.1729C11.4248 10.3231 11.2926 10.4452 11.1346 10.4529C9.49457 10.5327 8.77108 11.3176 7.59633 12.9918L7.36389 13.3232C7.34245 13.3538 7.31487 13.3801 7.28272 13.4006C7.25058 13.421 7.21451 13.4353 7.17657 13.4425C7.13863 13.4497 7.09957 13.4498 7.06161 13.4426C7.02366 13.4355 6.98755 13.4213 6.95536 13.4009L6.46506 13.0902C6.43285 13.0698 6.40518 13.0436 6.38364 13.0131C6.3621 12.9825 6.3471 12.9483 6.33951 12.9122C6.33191 12.8762 6.33187 12.8391 6.33938 12.803C6.34689 12.7669 6.36181 12.7326 6.38328 12.7021L6.61572 12.3707C7.19517 11.5448 7.72821 10.8568 8.3585 10.3381C7.72232 10.1453 7.2018 9.704 6.92663 9.13252C6.68387 9.25186 6.41238 9.3257 6.121 9.3257H4.9422C4.48762 9.3257 4.07689 9.15737 3.7634 8.88895C3.44955 9.15772 3.03881 9.32605 2.5846 9.32605H1.4058C1.19804 9.32605 1.0017 9.2858 0.816406 9.22281V11.95C0.816406 13.1381 1.31297 14.2772 2.19744 15.1175L3.17363 16.0452V18.2849H12.6033V16.0466L13.9261 14.7896C14.5895 14.1592 14.9621 13.3043 14.962 12.413L14.9612 9.3257ZM13.7821 6.17295V2.04697C13.7821 1.73761 13.5183 1.48705 13.1927 1.48705H12.0139C11.6882 1.48705 11.4245 1.73761 11.4245 2.04697V5.96648H12.6033C13.0188 5.96648 13.4115 6.04731 13.7821 6.17295ZM1.4058 8.20619H2.5846C2.91025 8.20619 3.174 7.95562 3.174 7.64626V3.16683C3.174 2.85747 2.91025 2.6069 2.5846 2.6069H1.4058C1.08016 2.6069 0.816406 2.85747 0.816406 3.16683V7.64626C0.816406 7.95562 1.08016 8.20619 1.4058 8.20619ZM4.94183 8.20619H6.12063C6.44627 8.20619 6.71003 7.95562 6.71003 7.64626V2.04697C6.71003 1.73761 6.44627 1.48705 6.12063 1.48705H4.94183C4.61619 1.48705 4.35243 1.73761 4.35243 2.04697V7.64626C4.35243 7.95562 4.61619 8.20619 4.94183 8.20619Z" fill="#180421"/>
<path d="M10.246 5.96648V0.927116C10.246 0.617756 9.98229 0.367188 9.65665 0.367188H8.47785C8.15221 0.367188 7.88845 0.617756 7.88845 0.927116V6.06901C8.07338 6.00672 8.26935 5.96648 8.47675 5.96648H10.246ZM14.9612 9.3257C14.9609 8.08896 13.9055 7.08633 12.604 7.08633H8.47306C8.14963 7.08633 7.88735 7.33375 7.88735 7.64101V7.66061C7.88735 8.57994 8.67199 9.32605 9.63971 9.32605H10.9386C11.2952 9.32605 11.4248 9.45133 11.4248 9.60601V10.1729C11.4248 10.3231 11.2926 10.4452 11.1346 10.4529C9.49457 10.5327 8.77108 11.3176 7.59633 12.9918L7.36389 13.3232C7.34245 13.3538 7.31487 13.3801 7.28272 13.4006C7.25058 13.421 7.21451 13.4353 7.17657 13.4425C7.13863 13.4497 7.09957 13.4498 7.06161 13.4426C7.02366 13.4355 6.98755 13.4213 6.95536 13.4009L6.46506 13.0902C6.43285 13.0698 6.40518 13.0436 6.38364 13.0131C6.3621 12.9825 6.3471 12.9483 6.33951 12.9122C6.33191 12.8762 6.33187 12.8391 6.33938 12.803C6.34689 12.7669 6.36181 12.7326 6.38328 12.7021L6.61572 12.3707C7.19517 11.5448 7.72821 10.8568 8.3585 10.3381C7.72232 10.1453 7.2018 9.704 6.92663 9.13252C6.68387 9.25186 6.41238 9.3257 6.121 9.3257H4.9422C4.48762 9.3257 4.07689 9.15737 3.7634 8.88895C3.44955 9.15772 3.03881 9.32605 2.5846 9.32605H1.4058C1.19804 9.32605 1.0017 9.2858 0.816406 9.22281V11.95C0.816406 13.1381 1.31297 14.2772 2.19744 15.1175L3.17363 16.0452V18.2849H12.6033V16.0466L13.9261 14.7896C14.5895 14.1592 14.9621 13.3043 14.962 12.413L14.9612 9.3257ZM13.7821 6.17295V2.04697C13.7821 1.73761 13.5183 1.48705 13.1927 1.48705H12.0139C11.6882 1.48705 11.4245 1.73761 11.4245 2.04697V5.96648H12.6033C13.0188 5.96648 13.4115 6.04731 13.7821 6.17295ZM1.4058 8.20619H2.5846C2.91025 8.20619 3.174 7.95562 3.174 7.64626V3.16683C3.174 2.85747 2.91025 2.6069 2.5846 2.6069H1.4058C1.08016 2.6069 0.816406 2.85747 0.816406 3.16683V7.64626C0.816406 7.95562 1.08016 8.20619 1.4058 8.20619ZM4.94183 8.20619H6.12063C6.44627 8.20619 6.71003 7.95562 6.71003 7.64626V2.04697C6.71003 1.73761 6.44627 1.48705 6.12063 1.48705H4.94183C4.61619 1.48705 4.35243 1.73761 4.35243 2.04697V7.64626C4.35243 7.95562 4.61619 8.20619 4.94183 8.20619Z" fill="#043142"/>
</svg>
