<svg width="13" height="19" viewBox="0 0 13 19" fill="none" xmlns="http://www.w3.org/2000/svg">
<path d="M11.3857 5.96648H7.30475L8.81124 1.42405C8.95269 0.892121 8.54601 0.367188 7.9908 0.367188H2.89846C2.47409 0.367188 2.11339 0.678648 2.0568 1.09509L0.925171 9.49403C0.857981 9.99796 1.25405 10.4459 1.76682 10.4459H5.96447L4.33421 17.2525C4.20691 17.7845 4.61712 18.2849 5.15818 18.2849C5.45524 18.2849 5.73815 18.1309 5.89375 17.865L12.1177 7.22632C12.4466 6.66989 12.0399 5.96648 11.3857 5.96648Z" fill="#180421"/>
<path d="M11.3857 5.96648H7.30475L8.81124 1.42405C8.95269 0.892121 8.54601 0.367188 7.9908 0.367188H2.89846C2.47409 0.367188 2.11339 0.678648 2.0568 1.09509L0.925171 9.49403C0.857981 9.99796 1.25405 10.4459 1.76682 10.4459H5.96447L4.33421 17.2525C4.20691 17.7845 4.61712 18.2849 5.15818 18.2849C5.45524 18.2849 5.73815 18.1309 5.89375 17.865L12.1177 7.22632C12.4466 6.66989 12.0399 5.96648 11.3857 5.96648Z" fill="#043142"/>
</svg>
