<svg width="22" height="24" viewBox="0 0 22 24" fill="none" xmlns="http://www.w3.org/2000/svg">
<path d="M15.7596 2.44622C14.8019 3.33492 13.9371 4.26921 13.1709 5.20764C11.9157 3.47859 10.3593 1.72466 8.59661 0.088623C4.07205 4.28671 0.860748 9.7566 0.860748 13.0554C0.860748 18.9148 5.47878 23.6646 11.1752 23.6646C16.8717 23.6646 21.4897 18.9148 21.4897 13.0554C21.4897 10.6025 19.0962 5.54332 15.7596 2.44622V2.44622ZM14.8631 18.1321C13.8657 18.8301 12.6358 19.2441 11.3069 19.2441C7.98465 19.2441 5.28124 17.0458 5.28124 13.4767C5.28124 11.6989 6.40064 10.1323 8.63298 7.45611C8.95209 7.82356 13.1838 13.2276 13.1838 13.2276L15.8835 10.148C16.0741 10.4634 16.2477 10.7719 16.4025 11.0676C17.6618 13.4707 17.1305 16.5457 14.8631 18.1321V18.1321Z" fill="#E92364"/>
</svg>
