<svg width="21" height="18" viewBox="0 0 21 18" fill="none" xmlns="http://www.w3.org/2000/svg">
<path d="M18.8562 1.47073C16.7367 -0.2987 13.5844 0.0195694 11.6388 1.98602L10.8769 2.75517L10.1149 1.98602C8.17322 0.0195694 5.01705 -0.2987 2.89747 1.47073C0.468456 3.50159 0.340817 7.14653 2.51455 9.3479L9.99885 16.9182C10.4823 17.4069 11.2675 17.4069 11.751 16.9182L19.2353 9.3479C21.4129 7.14653 21.2852 3.50159 18.8562 1.47073Z" fill="#180421"/>
<path d="M18.8562 1.47073C16.7367 -0.2987 13.5844 0.0195694 11.6388 1.98602L10.8769 2.75517L10.1149 1.98602C8.17322 0.0195694 5.01705 -0.2987 2.89747 1.47073C0.468456 3.50159 0.340817 7.14653 2.51455 9.3479L9.99885 16.9182C10.4823 17.4069 11.2675 17.4069 11.751 16.9182L19.2353 9.3479C21.4129 7.14653 21.2852 3.50159 18.8562 1.47073Z" fill="#043142"/>
</svg>
