<svg width="19" height="24" viewBox="0 0 19 24" fill="none" xmlns="http://www.w3.org/2000/svg">
<path d="M18.1666 17.5172L14.4879 13.3504H15.8983C16.3132 13.3504 16.6802 13.1202 16.8552 12.7491C17.0301 12.3789 16.9726 11.9543 16.7041 11.6416L13.1065 7.45645H14.4368C14.8558 7.45645 15.2334 7.2101 15.3973 6.82976C15.5594 6.4554 15.483 6.01979 15.2021 5.72095L10.1245 0.311374C9.84685 0.0143726 9.32882 0.0143726 9.0507 0.311374L3.97266 5.72095C3.69177 6.01979 3.6158 6.4554 3.77742 6.82976C3.94135 7.2101 4.31939 7.45645 4.73842 7.45645H6.06871L2.47061 11.6426C2.20308 11.9548 2.14552 12.3789 2.32004 12.7495C2.49502 13.1202 2.86155 13.3504 3.27689 13.3504H4.6873L1.00863 17.5172C0.732347 17.8299 0.669723 18.2581 0.844701 18.6343C1.01738 19.005 1.39726 19.2444 1.81214 19.2444H8.1141V20.3703L6.71935 22.5989C6.47438 23.0889 6.83078 23.6654 7.37828 23.6654H11.7969C12.3444 23.6654 12.7008 23.0889 12.4559 22.5989L11.0611 20.3703V19.2444H17.3631C17.7779 19.2444 18.1578 19.005 18.3305 18.6343C18.5055 18.2581 18.4429 17.8299 18.1666 17.5172Z" fill="#59C9A5"/>
</svg>
