<svg width="25" height="17" viewBox="0 0 25 17" fill="none" xmlns="http://www.w3.org/2000/svg">
<path d="M23.9817 13.8954C23.1017 13.7972 22.2585 13.4656 21.6118 12.9581C21.0347 12.5038 20.212 12.4956 19.639 12.9581C18.0877 14.2024 15.2512 14.2024 13.6754 12.8967C13.1228 12.4383 12.3247 12.5242 11.7639 12.9704C10.2086 14.2024 7.38847 14.1983 5.82084 12.9008C5.26828 12.4424 4.45785 12.5365 3.89301 12.9826C3.25859 13.482 2.41952 13.8053 1.53132 13.8995C1.20797 13.9322 0.97467 14.2187 0.97467 14.5421V15.86C0.97467 16.2325 1.28574 16.5477 1.65821 16.5149C2.83701 16.4126 3.95441 16.0483 4.90809 15.4548C7.22066 16.871 10.5156 16.8506 12.7667 15.4548C15.0793 16.871 18.3742 16.8506 20.6254 15.4548C21.5791 16.036 22.7087 16.4085 23.863 16.5108C24.2355 16.5436 24.5465 16.2284 24.5465 15.856V14.5626C24.5506 14.2351 24.3132 13.9322 23.9817 13.8954ZM23.9817 8.0014C23.1017 7.90317 22.2585 7.57163 21.6118 7.06409C21.0347 6.60976 20.212 6.60158 19.639 7.06409C18.0877 8.30838 15.2512 8.30838 13.6754 7.0027C13.1228 6.54428 12.3247 6.63023 11.7639 7.07637C10.2086 8.30838 7.38847 8.30429 5.82084 7.00679C5.26828 6.54837 4.45785 6.64251 3.89301 7.08865C3.25859 7.588 2.41952 7.91135 1.53132 8.00549C1.20797 8.03824 0.97467 8.32475 0.97467 8.6481V9.96606C0.97467 10.3385 1.28574 10.6537 1.65821 10.6209C2.83701 10.5186 3.95441 10.1543 4.90809 9.56085C7.22066 10.977 10.5156 10.9566 12.7667 9.56085C15.0793 10.977 18.3742 10.9566 20.6254 9.56085C21.5791 10.1421 22.7087 10.5145 23.863 10.6169C24.2355 10.6496 24.5465 10.3344 24.5465 9.96197V8.66857C24.5506 8.34112 24.3132 8.03824 23.9817 8.0014ZM23.9817 2.10741C23.1017 2.00509 22.2585 1.67764 21.6118 1.17011C21.0347 0.715778 20.212 0.707591 19.639 1.17011C18.0877 2.41439 15.2512 2.41439 13.6754 1.10871C13.1228 0.650289 12.3247 0.736243 11.7639 1.18238C10.2086 2.41439 7.38847 2.4103 5.82084 1.1128C5.26828 0.654382 4.45785 0.748522 3.89301 1.19466C3.25859 1.69402 2.41952 2.01737 1.53132 2.11151C1.20797 2.14425 0.97467 2.43076 0.97467 2.75411V4.07208C0.97467 4.44454 1.28574 4.75971 1.65821 4.72696C2.83701 4.62464 3.95441 4.26036 4.90809 3.66686C7.22066 5.08306 10.5156 5.06259 12.7667 3.66686C15.0793 5.08306 18.3742 5.06259 20.6254 3.66686C21.5791 4.24808 22.7087 4.62054 23.863 4.72287C24.2355 4.75561 24.5465 4.44045 24.5465 4.06798V2.77458C24.5506 2.44714 24.3132 2.14425 23.9817 2.10741Z" fill="#00ABE7"/>
</svg>
